<svg width="32px" height="32px" class="svg-icon" style="width: 1em; height: 1em;vertical-align: middle;fill: currentColor;overflow: hidden;" viewBox="0 0 1024 1024" version="1.1" xmlns="http://www.w3.org/2000/svg"><path d="M971.2 245.44a263.68 263.68 0 0 0-192-192 1717.12 1717.12 0 0 0-533.44 0 263.68 263.68 0 0 0-192 192 1717.12 1717.12 0 0 0 0 533.44 263.68 263.68 0 0 0 192 192 1717.12 1717.12 0 0 0 533.44 0 263.68 263.68 0 0 0 192-192 1719.04 1719.04 0 0 0 0-533.44zM492.8 539.52A529.92 529.92 0 0 1 329.6 704a69.76 69.76 0 1 1-71.68-119.68 360 360 0 0 0 89.6-80 409.92 409.92 0 0 0-89.6-79.36 69.76 69.76 0 1 1 71.68-120.32 529.6 529.6 0 0 1 163.2 163.2 69.76 69.76 0 0 1 0 71.68zM742.4 704h-172.8c-32 0-57.6-16.32-57.6-48s25.92-48 57.6-48h172.8c32 0 57.6 16.32 57.6 48s-25.92 48-57.6 48z" fill="#231F20" /></svg>